<svg data-v-fde0c5aa="" xmlns="http://www.w3.org/2000/svg" viewBox="0 0 300 300" class="iconLeft"><!----><defs data-v-fde0c5aa=""><linearGradient data-v-fde0c5aa="" gradientTransform="rotate(25)" id="f5ea76c7-dc03-45e8-a0a2-7beef58221b0" x1="0%" y1="0%" x2="100%" y2="0%"><stop data-v-fde0c5aa="" offset="0%" stop-color="#41E296" stop-opacity="1"></stop><stop data-v-fde0c5aa="" offset="100%" stop-color="#00C4EE" stop-opacity="1"></stop></linearGradient></defs><rect data-v-fde0c5aa="" fill="url(#f5ea76c7-dc03-45e8-a0a2-7beef58221b0)" x="0" y="0" width="300px" height="300px" class="logo-background-square"></rect><defs data-v-fde0c5aa=""><!----></defs><g data-v-fde0c5aa="" id="3349bbb2-20ff-464b-bfbf-c64ad1fb2a22" fill="#ffffff" transform="matrix(2.4836008548736572,0,0,2.4836008548736572,80.06311362792425,136.94867687719778)"><path d="M1.76 6.64L0.49 6.64L0.49 8.89L1.88 10.50L4.02 10.50L5.40 8.89L5.40 0.03L1.48 0.03L1.48 1.19L4.12 1.19L4.12 8.41L3.35 9.32L2.53 9.32L1.76 8.41ZM1.19 7.17L1.19 8.62L2.28 9.90L3.61 9.90L4.69 8.62L4.69 0.67L2.02 0.67L2.02 0.55L4.83 0.55L4.83 8.68L3.67 10.02L2.23 10.02L1.06 8.68L1.06 7.17ZM8.69 4.68L8.69 1.29L11.72 1.29L11.72 0.01C10.02 0.01 9.11 0.01 7.42 0.01L7.42 10.50L11.91 10.50L11.91 9.23L8.69 9.23L8.69 5.95L11.23 5.95L11.23 4.68ZM11.14 0.59L11.14 0.71L8.12 0.71L8.12 5.24L10.70 5.24L10.70 5.38L8.12 5.38L8.12 9.80L11.34 9.80L11.34 9.93L7.99 9.93L7.99 0.59ZM14.36 10.50L15.64 10.50L15.64 1.15L17.50 1.15L17.50 0L12.52 0L12.52 1.15L14.36 1.15ZM14.94 9.97L14.94 0.62L13.05 0.62L13.05 0.49C14.43 0.49 15.57 0.49 16.97 0.49L16.97 0.62L15.06 0.62L15.06 9.97ZM19.91 7.03L18.65 7.03L18.65 8.95L20.19 10.57L22.19 10.57L23.73 8.95L23.73 6.12L19.98 3.49L19.98 2.03L20.75 1.20L21.63 1.20L22.41 2.03L22.41 3.12L23.67 3.12L23.67 1.51L22.18-0.06L20.22-0.06L18.72 1.51L18.72 4.14L22.48 6.78L22.48 8.44L21.66 9.31L20.73 9.31L19.91 8.44ZM19.33 7.56L19.33 8.67L20.48 9.87L21.91 9.87L23.06 8.67L23.06 6.48L19.28 3.85L19.28 1.76L20.45 0.52L21.94 0.52L23.11 1.76L23.11 2.58L22.99 2.58L22.99 1.81L21.88 0.64L20.51 0.64L19.40 1.81L19.40 3.79L23.17 6.41L23.17 8.72L21.97 10.00L20.43 10.00L19.21 8.72L19.21 7.56ZM26.89 4.68L26.89 1.29L29.92 1.29L29.92 0.01C28.22 0.01 27.31 0.01 25.62 0.01L25.62 10.50L30.11 10.50L30.11 9.23L26.89 9.23L26.89 5.95L29.43 5.95L29.43 4.68ZM29.34 0.59L29.34 0.71L26.32 0.71L26.32 5.24L28.90 5.24L28.90 5.38L26.32 5.38L26.32 9.80L29.54 9.80L29.54 9.93L26.19 9.93L26.19 0.59ZM32.56 10.50L33.84 10.50L33.84 1.15L35.70 1.15L35.70 0L30.72 0L30.72 1.15L32.56 1.15ZM33.14 9.97L33.14 0.62L31.25 0.62L31.25 0.49C32.63 0.49 33.77 0.49 35.17 0.49L35.17 0.62L33.26 0.62L33.26 9.97ZM40.98 3.50L42.25 3.50L42.25 1.60L40.70 0.04L38.57 0.04L37.02 1.60L37.02 8.86L38.56 10.50L40.71 10.50L42.25 8.86L42.25 4.80L39.63 4.80L39.63 6.06L40.98 6.06L40.98 8.36L40.12 9.28L39.14 9.28L38.29 8.36L38.29 2.11L39.13 1.26L40.14 1.26L40.98 2.11ZM41.55 2.97L41.55 1.88L40.36 0.70L38.89 0.70L37.72 1.88L37.72 8.58L38.91 9.86L40.36 9.86L41.55 8.58L41.55 5.49L40.17 5.49L40.17 5.36L41.68 5.36L41.68 8.64L40.42 9.98L38.85 9.98L37.59 8.64L37.59 1.82L38.85 0.57L40.42 0.57L41.68 1.82L41.68 2.97ZM45.54 4.68L45.54 1.29L48.57 1.29L48.57 0.01C46.87 0.01 45.96 0.01 44.27 0.01L44.27 10.50L48.76 10.50L48.76 9.23L45.54 9.23L45.54 5.95L48.08 5.95L48.08 4.68ZM47.99 0.59L47.99 0.71L44.97 0.71L44.97 5.24L47.54 5.24L47.54 5.38L44.97 5.38L44.97 9.80L48.19 9.80L48.19 9.93L44.84 9.93L44.84 0.59ZM50.19 10.50L51.46 10.50L51.46 5.46L51.39 2.69L51.44 2.69L52.26 5.35L53.90 10.50L55.26 10.50L55.26 0.04L53.98 0.04L53.98 3.72L54.12 7.24L54.08 7.24L53.10 3.79L51.91 0.04L50.19 0.04ZM51.51 0.63L54.40 9.73L54.56 9.73L54.56 0.56L54.68 0.56L54.68 9.86L54.32 9.86L51.41 0.76L50.89 0.76L50.89 9.97L50.76 9.97L50.76 0.63ZM58.53 10.50L58.53 0C57.44 0 58.35 0 57.26 0L57.26 10.50ZM57.83 0.52L57.96 0.52L57.96 9.98L57.83 9.98ZM60.59 0L60.59 8.88L62.10 10.56L64.08 10.56L65.58 8.88L65.58 0L64.30 0L64.30 8.40L63.50 9.28L62.66 9.28L61.87 8.40L61.87 0ZM61.17 0.50L61.29 0.50L61.29 8.61L62.41 9.86L63.76 9.86L64.88 8.61L64.88 0.52L65.00 0.52L65.00 8.67L63.81 9.98L62.36 9.98L61.17 8.67ZM68.63 7.03L67.37 7.03L67.37 8.95L68.91 10.57L70.91 10.57L72.45 8.95L72.45 6.12L68.70 3.49L68.70 2.03L69.47 1.20L70.35 1.20L71.13 2.03L71.13 3.12L72.39 3.12L72.39 1.51L70.90-0.06L68.94-0.06L67.44 1.51L67.44 4.14L71.20 6.78L71.20 8.44L70.38 9.31L69.45 9.31L68.63 8.44ZM68.05 7.56L68.05 8.67L69.20 9.87L70.63 9.87L71.78 8.67L71.78 6.48L68.00 3.85L68.00 1.76L69.17 0.52L70.66 0.52L71.83 1.76L71.83 2.58L71.71 2.58L71.71 1.81L70.60 0.64L69.23 0.64L68.12 1.81L68.12 3.79L71.89 6.41L71.89 8.72L70.69 10.00L69.15 10.00L67.93 8.72L67.93 7.56Z"></path></g><defs data-v-fde0c5aa=""><!----></defs><g data-v-fde0c5aa="" id="2963c535-1ed9-4c82-af3f-138e593d8559" stroke="none" fill="#ffffff" transform="matrix(1.2375317811965942,0,0,1.2375317811965942,34.339529703307335,130.1994912355479)"><path d="M27.377 11.377L16 0 4.623 11.377 16 22.753l11.377-11.376zM16 6.026l5.35 5.35L16 16.727l-5.35-5.35L16 6.026zM27.426 14.969l-5.664 5.664V32h5.664zM10.238 20.633l-5.664-5.664V32h5.664z"></path></g><!----></svg>